<svg width="195" height="226" viewBox="0 0 195 226" fill="none" xmlns="http://www.w3.org/2000/svg">
<path d="M181.023 89.9129L59.072 211.864C61.3928 219.744 68.6776 225.5 77.3093 225.5H175.646C186.146 225.5 194.66 216.986 194.66 206.486V108.15C194.659 99.518 188.904 92.2336 181.023 89.9129Z" fill="#88D16F"/>
<path d="M175.645 89.1364H167.386L58.2954 198.227V206.486C58.2954 208.354 58.5696 210.158 59.0719 211.863H148.373C166.376 211.863 181.023 197.217 181.023 179.213V89.9129C179.317 89.4106 177.514 89.1364 175.645 89.1364Z" fill="#6DC54B"/>
<path d="M150.341 61.965L31.0225 177.773V179.214C31.0225 189.714 39.536 198.228 50.0363 198.228H148.373C158.873 198.228 167.387 189.714 167.387 179.214C167.387 176.171 167.387 83.924 167.387 80.8773C167.386 71.0419 159.916 62.9498 150.341 61.965Z" fill="#E9E9FB"/>
<path d="M136.704 61.8635L31.0225 164.137V177.773H100.909C128.165 177.773 150.341 155.598 150.341 128.341V61.965C148.627 61.7888 148.459 61.8951 136.704 61.8635Z" fill="#D9D9FB"/>
<path d="M117.954 27.7729H34.6455C12.3116 76.1171 19.5951 137.332 71.1508 164.137H86.6763C106.875 162.943 128.148 142.399 136.288 119.023L136.704 114.52C136.704 103.398 136.704 64.3104 136.704 46.523C136.704 36.1682 128.309 27.7729 117.954 27.7729Z" fill="#FBE47F"/>
<path d="M136.704 113V128.341C136.704 148.109 120.677 164.136 100.909 164.136H85.5684C93.1001 164.136 99.2046 158.032 99.2046 150.5V139.136C99.2046 132.231 104.8 126.636 111.704 126.636H123.068C130.6 126.636 136.704 120.532 136.704 113Z" fill="#FBD251"/>
<path d="M34.6454 27.7729H19.091C8.73657 27.7729 0.34082 36.1682 0.34082 46.523V145.387C0.34082 155.741 8.73613 164.137 19.091 164.137H71.1508C38.9143 132.923 22.9538 73.6509 34.6454 27.7729Z" fill="#FBD251"/>
<path d="M65.1136 75.5002C63.231 75.5002 61.7043 73.9739 61.7043 72.0909V53.9089C61.7043 52.0263 63.2306 50.4997 65.1136 50.4997C66.9962 50.4997 68.5229 52.0259 68.5229 53.9089V72.0909C68.5229 73.9735 66.9962 75.5002 65.1136 75.5002Z" fill="#E9E9FB"/>
<path d="M48.0681 40.2573V41.4091C48.0681 50.8227 55.7001 58.4546 65.1136 58.4546C74.5271 58.4546 82.1591 50.8227 82.1591 41.4091C82.1591 41.0694 82.1591 40.681 82.1591 40.2573H48.0681Z" fill="#605875"/>
<path d="M48.0681 17.5455V40.2573C58.1646 47.8537 72.0535 47.8612 82.1591 40.2573C82.1591 34.613 82.1591 22.0701 82.1591 17.5455H48.0681Z" fill="#544D66"/>
<path d="M82.1591 17.5455C82.1591 10.3534 77.7021 4.20591 71.4017 1.70279C61.0987 2.46964 56.2502 10.3534 56.2502 17.5455C56.2502 24.7376 60.6443 33.0758 71.4017 33.3882C77.7021 30.8851 82.1591 24.7376 82.1591 17.5455Z" fill="#FB7669"/>
<path d="M60.6439 17.5455C60.6439 10.3534 65.1009 4.20591 71.4013 1.70278C69.4554 0.929785 67.3351 0.5 65.1136 0.5C55.7001 0.5 48.0681 8.13198 48.0681 17.5455C48.0681 26.959 55.7001 34.591 65.1136 34.591C67.3351 34.591 69.4554 34.1612 71.4013 33.3882C65.1009 30.8851 60.6439 24.7376 60.6439 17.5455Z" fill="#FA5757"/>
<path d="M20.7951 97.6591H116.25C118.132 97.6591 119.659 96.1329 119.659 94.2503C119.659 92.3677 118.133 90.841 116.25 90.841C114.391 90.841 25.6189 90.841 20.7951 90.841C18.9125 90.841 17.3862 92.3672 17.3862 94.2503C17.3862 96.1329 18.9125 97.6591 20.7951 97.6591Z" fill="#FBB835"/>
<path d="M116.25 107.887C86.1875 107.887 22.9963 107.887 20.7956 107.887C18.9129 107.887 17.3867 109.413 17.3867 111.296C17.3867 113.178 18.9129 114.705 20.7956 114.705H116.25C118.133 114.705 119.659 113.179 119.659 111.296C119.659 109.413 118.133 107.887 116.25 107.887Z" fill="#FBB835"/>
<path d="M75.3409 124.932C66.5488 124.932 33.8592 124.932 20.7956 124.932C18.9129 124.932 17.3867 126.458 17.3867 128.341C17.3867 130.224 18.9129 131.75 20.7956 131.75H75.3409C77.2235 131.75 78.7502 130.224 78.7502 128.341C78.7498 126.458 77.2235 124.932 75.3409 124.932Z" fill="#FBB835"/>
<path d="M75.3409 141.977C64.0755 141.977 32.0609 141.977 20.7956 141.977C18.9129 141.977 17.3867 143.503 17.3867 145.386C17.3867 147.269 18.9129 148.796 20.7956 148.796H75.3409C77.2235 148.796 78.7502 147.269 78.7502 145.386C78.7498 143.503 77.2235 141.977 75.3409 141.977Z" fill="#FBB835"/>
</svg>
