<svg width="20" height="18" viewBox="0 0 20 18" fill="none" xmlns="http://www.w3.org/2000/svg">
<path fill-rule="evenodd" clip-rule="evenodd" d="M10.5971 0H16.4771C18.1339 0 19.4771 1.34315 19.4771 3V14.29C19.4771 15.9469 18.1339 17.29 16.4771 17.29H10.5971C8.94021 17.29 7.59706 15.9469 7.59706 14.29V10.81H9.91706C11.0216 10.81 11.9171 9.91457 11.9171 8.81V8.48C11.9171 7.37543 11.0216 6.48 9.91706 6.48H7.59706V3C7.59706 1.34315 8.94021 0 10.5971 0ZM12.9471 4.64H16.2971C16.7113 4.64 17.0471 4.30421 17.0471 3.89C17.0471 3.47579 16.7113 3.14 16.2971 3.14H12.9471C12.5328 3.14 12.1971 3.47579 12.1971 3.89C12.1971 4.30421 12.5328 4.64 12.9471 4.64Z" fill="#F4A402"/>
<path d="M10.0471 7.45H7.61706V9.85H10.0471C10.5496 9.85 10.9571 9.44258 10.9571 8.94V8.36C10.9571 7.85742 10.5496 7.45 10.0471 7.45Z" fill="#F4A402"/>
<path fill-rule="evenodd" clip-rule="evenodd" d="M0.00706228 3.43C-0.107854 1.69434 1.19311 0.18842 2.92706 0.05C4.65165 0.198655 5.93813 1.70326 5.81706 3.43V12.75C5.82643 13.2276 5.69421 13.6974 5.43706 14.1L3.56706 16.99C3.4346 17.2275 3.18398 17.3747 2.91206 17.3747C2.64014 17.3747 2.38952 17.2275 2.25706 16.99L0.387062 14.1C0.134183 13.6955 0.00232744 13.227 0.00706228 12.75V3.43ZM2.91706 7.15C3.33127 7.15 3.66706 6.81421 3.66706 6.4V2.94C3.66978 2.74027 3.59163 2.54792 3.45039 2.40667C3.30914 2.26543 3.11679 2.18728 2.91706 2.19C2.50285 2.19 2.16706 2.52579 2.16706 2.94V6.4C2.16706 6.81421 2.50285 7.15 2.91706 7.15Z" fill="#F4A402"/>
</svg>
